# xmcd
#
# Track frame offsets:
#	150
#	24207
#	42095
#	63376
#	84441
#	103286
#	130158
#	153491
#	174006
#	199360
#
# Disc length: 2971 seconds
#
# Revision: 4286512843
# Processed by: cddbd v1.5.2PL0 Copyright (c) Steve Scherf et al.
# Submitted via: EZCDAudioConverter 8.0.2.1
#
DISCID=790b990a
DTITLE=Phương Thanh and Bằng Kiều - Trái tim hoang vu
DYEAR=1998
DGENRE=Contemporary Blues
TTITLE0=Bằng Kiều - Mong mưa thôi rơi
TTITLE1=Phương Thanh - Chờ anh trong mưa
TTITLE2=Bằng Kiều - Em về tinh khôi
TTITLE3=Bằng Kiều - Gõ của tình yêu
TTITLE4=Phương Thanh - Chờ anh đến bên em
TTITLE5=Bằng Kiều - Trái tim hoang vu
TTITLE6=Phương Thanh - Đừng quên tình nhau
TTITLE7=Bằng Kiều - Tình nhỏ
TTITLE8=Phương Thanh - Nhớ nhung trong chiều
TTITLE9=Bằng Kiều - Một ngày mùa đông
EXTD=
EXTT0=
EXTT1=
EXTT2=
EXTT3=
EXTT4=
EXTT5=
EXTT6=
EXTT7=
EXTT8=
EXTT9=
PLAYORDER=
